<svg version="1.1" id="Layer_1" xmlns="http://www.w3.org/2000/svg" xmlns:xlink="http://www.w3.org/1999/xlink" x="0px" y="0px"
	 width="100%" viewBox="0 0 500 500" enable-background="new 0 0 500 500" xml:space="preserve">
<path fill="#212529" opacity="1.000000" stroke="none" 
	d="
M283.000000,501.000000 
	C188.666687,501.000000 94.833382,501.000000 1.000050,501.000000 
	C1.000034,334.333405 1.000034,167.666794 1.000017,1.000140 
	C167.666565,1.000093 334.333130,1.000093 500.999756,1.000047 
	C500.999847,167.666519 500.999847,334.333038 500.999939,500.999786 
	C428.500000,501.000000 356.000000,501.000000 283.000000,501.000000 
M161.363586,260.893402 
	C156.008987,261.655823 159.431381,265.789764 158.756516,268.285889 
	C158.600235,268.863861 160.821671,270.084686 162.460587,271.711639 
	C179.375961,271.752808 196.291321,271.793976 214.060318,271.977203 
	C220.776627,270.478546 215.443893,265.455139 217.976364,261.986694 
	C215.624695,261.986694 214.383682,261.986694 212.315399,261.749939 
	C207.214615,261.509338 202.113846,261.268768 196.982437,260.087982 
	C197.031921,250.522263 197.081406,240.956543 198.044647,231.299576 
	C203.077332,231.204147 208.110016,231.108719 214.017670,231.146423 
	C221.079529,229.438477 215.177048,224.363846 217.690323,221.164886 
	C215.470688,221.164886 214.338699,221.164886 212.317017,221.013580 
	C211.418701,220.953903 210.520401,220.894226 209.087463,220.251892 
	C192.375748,220.251892 175.664032,220.251892 158.541733,220.251892 
	C158.541733,222.819992 158.173935,225.206390 158.694199,227.380249 
	C158.961334,228.496353 160.813644,229.233078 162.464691,230.839783 
	C167.970428,231.029709 173.476181,231.219635 178.895096,231.816864 
	C178.895096,231.816864 179.113403,232.172073 178.986542,233.080002 
	C178.948151,242.329971 178.909760,251.579926 177.950516,260.882080 
	C172.736099,260.941162 167.521667,261.000244 161.363586,260.893402 
M345.704590,231.304703 
	C346.973846,231.152191 348.243073,230.999664 349.735596,230.820312 
	C349.735596,228.436462 349.588196,226.299347 349.770111,224.190643 
	C350.043915,221.016937 348.430603,220.539368 345.078522,221.022690 
	C344.019379,220.962463 342.960236,220.902252 341.369446,220.198761 
	C327.899628,220.135849 314.428955,219.962219 300.960358,220.063217 
	C295.387299,220.104980 291.142029,223.945541 291.016815,229.248444 
	C290.761688,240.055481 290.756561,250.877487 291.040955,261.682983 
	C291.133240,265.188629 292.365356,268.729706 296.982330,269.056244 
	C296.982330,269.056244 296.906250,269.062225 296.807922,269.828491 
	C297.288757,269.990234 297.769562,270.152008 298.918030,270.575958 
	C300.997925,271.049927 303.075409,271.920746 305.158142,271.933502 
	C318.727753,272.016754 332.298492,271.913818 346.710327,272.024780 
	C353.644867,270.222168 347.695648,265.299988 350.362427,261.755524 
	C347.323517,261.755524 345.541504,261.755524 342.596344,261.656281 
	C340.800842,261.479614 339.006714,261.166687 337.209656,261.149139 
	C327.788055,261.057190 318.365753,261.040070 308.919403,260.097290 
	C308.960388,257.392365 309.001373,254.687454 309.969543,251.880783 
	C321.894104,251.818939 333.818634,251.757095 346.574219,251.771072 
	C352.545380,251.409180 348.992950,246.905289 349.631805,244.352844 
	C350.403625,241.269211 348.119965,240.970306 344.930878,241.171295 
	C332.905121,240.966125 320.879333,240.760971 308.890198,239.559265 
	C308.890198,236.945831 308.890198,234.332382 308.890198,231.266922 
	C321.316864,231.266922 333.113586,231.266922 345.704590,231.304703 
M379.200226,240.334412 
	C371.859039,240.334412 364.517822,240.334412 356.943848,240.334412 
	C356.943848,243.154724 357.122437,245.310760 356.901337,247.425003 
	C356.582031,250.478287 358.081177,251.173050 361.270142,251.477249 
	C368.756317,251.549683 376.242493,251.622116 384.585236,251.771255 
	C390.697449,251.403473 387.242828,246.774063 387.815613,244.104187 
	C388.536255,240.744965 385.844696,241.176697 382.939697,241.163116 
	C381.879150,241.075989 380.818604,240.988861 379.200226,240.334412 
M271.572418,221.055283 
	C270.520721,220.992752 269.469055,220.930222 267.703583,220.319855 
	C253.436340,220.319855 239.169113,220.319855 224.585266,220.319855 
	C224.585266,236.528458 224.528336,252.496902 224.740082,268.461823 
	C224.751633,269.332764 227.005753,270.173950 228.758209,271.652985 
	C243.295334,271.723877 257.832458,271.794800 273.093384,272.004120 
	C279.755096,271.236847 283.413452,268.049133 283.592560,261.756317 
	C283.884247,251.510483 283.913391,241.241028 283.556793,230.998810 
	C283.332123,224.546112 279.108002,221.225571 271.572418,221.055283 
M399.303345,271.758820 
	C402.590759,271.784058 405.878174,271.809326 410.026855,271.977295 
	C412.759460,272.475464 413.285004,271.097839 413.244019,268.662506 
	C413.150360,263.094482 413.316101,257.522125 414.264832,251.891479 
	C421.503082,251.959030 428.741364,252.026581 435.908142,253.016281 
	C435.908142,258.917999 435.908142,264.819733 435.908142,270.824677 
	C437.400513,270.902039 438.539886,270.961121 440.186829,271.745911 
	C443.467896,271.776184 446.748962,271.806458 450.902222,271.980377 
	C453.741302,272.530273 454.095337,271.012390 454.076508,268.616394 
	C453.980042,256.327942 454.109070,244.037613 453.995941,231.749451 
	C453.933655,224.983994 450.008514,221.369934 442.147034,221.066055 
	C441.059326,220.988861 439.971588,220.911652 438.251526,220.319138 
	C426.974396,220.228836 415.694305,219.951721 404.421509,220.132690 
	C399.330719,220.214417 395.233246,224.352020 395.146820,229.490005 
	C394.915466,243.242340 395.067963,257.001129 395.067963,271.012634 
	C396.541412,271.012634 397.694122,271.012634 399.303345,271.758820 
M228.858688,424.758514 
	C229.522217,434.231018 230.147675,443.706360 230.860687,453.175140 
	C231.486954,461.491638 235.350845,465.128052 243.665176,465.149353 
	C261.331696,465.194641 278.998444,465.177612 296.665070,465.159149 
	C306.345154,465.149048 310.288818,461.412689 310.905518,451.822510 
	C311.621796,440.683472 312.468048,429.551544 313.040222,418.405334 
	C313.204926,415.197357 314.546844,413.951874 317.529297,412.914734 
	C327.405609,409.480103 337.102875,405.534271 346.918427,401.919250 
	C351.047058,400.398682 350.897339,398.434967 348.451813,395.303070 
	C340.660492,385.324860 332.949707,375.279236 325.439301,365.088989 
	C323.188019,362.034393 321.212708,362.090759 317.874542,363.296387 
	C268.381622,381.171478 222.800049,373.916534 184.200272,338.028809 
	C148.730316,305.050995 136.528076,263.052521 147.977280,215.859863 
	C166.322296,140.243286 246.410416,100.187012 318.455994,128.902466 
	C321.342010,130.052750 323.172607,130.164978 325.213135,127.398750 
	C332.925690,116.943192 340.815552,106.616554 348.760773,96.335724 
	C350.916870,93.545799 350.985718,91.771286 347.385864,90.403397 
	C337.759003,86.745354 328.290558,82.621979 318.518372,79.417961 
	C314.404785,78.069244 313.099976,76.270386 312.933258,72.151779 
	C312.488647,61.168961 311.641357,50.200218 310.827332,39.235302 
	C310.191467,30.670593 306.146179,26.869335 297.745972,26.850246 
	C279.746094,26.809345 261.746002,26.806055 243.746124,26.850075 
	C235.155975,26.871082 231.475769,30.458668 230.820419,39.202190 
	C229.948822,50.830887 228.984070,62.453800 228.266403,74.091965 
	C228.093506,76.895737 226.939957,77.953041 224.403259,78.948029 
	C211.735580,83.916801 199.058731,88.904213 186.664673,94.503853 
	C182.774002,96.261665 180.567932,96.000107 177.528320,93.231400 
	C169.400772,85.828209 161.021591,78.694435 152.600830,71.622154 
	C145.666611,65.798386 140.277222,66.145805 133.822159,72.550537 
	C121.636192,84.641525 109.477333,96.759872 97.318443,108.878120 
	C90.276634,115.896393 90.036415,121.216698 96.591896,128.831390 
	C103.875488,137.291809 111.186821,145.732193 118.676582,154.008896 
	C120.801132,156.356674 120.836105,158.070908 119.559883,160.971466 
	C114.015778,173.571991 108.699715,186.282349 103.721939,199.116150 
	C102.405182,202.511063 100.710175,203.716309 97.285126,203.901016 
	C86.140579,204.501984 75.008728,205.340363 63.873039,206.102737 
	C55.186264,206.697449 51.016224,211.165207 51.005596,219.958710 
	C50.984444,237.458649 50.965725,254.958740 51.014194,272.458588 
	C51.038586,281.264618 55.290710,285.548920 64.071976,286.062439 
	C75.381668,286.723816 86.681038,287.567871 97.993401,288.173462 
	C101.124367,288.341095 102.453041,289.698334 103.608391,292.628876 
	C108.718819,305.591339 114.081703,318.459747 119.663963,331.226318 
	C120.849403,333.937408 120.860252,335.574585 118.873550,337.799591 
	C111.216583,346.374908 103.739578,355.111542 96.232628,363.820038 
	C90.237526,370.774719 90.407959,376.156891 96.788567,382.560852 
	C108.905006,394.721588 121.033203,406.870575 133.165710,419.015289 
	C140.419327,426.276215 145.870102,426.517365 153.513474,419.879730 
	C161.565659,412.887054 169.761902,406.045135 177.534225,398.752563 
	C180.827850,395.662262 183.229431,395.888184 187.084747,397.728943 
	C197.415863,402.661560 207.908295,407.355438 218.643219,411.312439 
	C227.645264,414.630676 227.836563,414.111725 228.858688,424.758514 
z"/>
<path fill="#948BFB" opacity="1.000000" stroke="none" 
	d="
M228.830902,424.298523 
	C227.836563,414.111725 227.645264,414.630676 218.643219,411.312439 
	C207.908295,407.355438 197.415863,402.661560 187.084747,397.728943 
	C183.229431,395.888184 180.827850,395.662262 177.534225,398.752563 
	C169.761902,406.045135 161.565659,412.887054 153.513474,419.879730 
	C145.870102,426.517365 140.419327,426.276215 133.165710,419.015289 
	C121.033203,406.870575 108.905006,394.721588 96.788567,382.560852 
	C90.407959,376.156891 90.237526,370.774719 96.232628,363.820038 
	C103.739578,355.111542 111.216583,346.374908 118.873550,337.799591 
	C120.860252,335.574585 120.849403,333.937408 119.663963,331.226318 
	C114.081703,318.459747 108.718819,305.591339 103.608391,292.628876 
	C102.453041,289.698334 101.124367,288.341095 97.993401,288.173462 
	C86.681038,287.567871 75.381668,286.723816 64.071976,286.062439 
	C55.290710,285.548920 51.038586,281.264618 51.014194,272.458588 
	C50.965725,254.958740 50.984444,237.458649 51.005596,219.958710 
	C51.016224,211.165207 55.186264,206.697449 63.873039,206.102737 
	C75.008728,205.340363 86.140579,204.501984 97.285126,203.901016 
	C100.710175,203.716309 102.405182,202.511063 103.721939,199.116150 
	C108.699715,186.282349 114.015778,173.571991 119.559883,160.971466 
	C120.836105,158.070908 120.801132,156.356674 118.676582,154.008896 
	C111.186821,145.732193 103.875488,137.291809 96.591896,128.831390 
	C90.036415,121.216698 90.276634,115.896393 97.318443,108.878120 
	C109.477333,96.759872 121.636192,84.641525 133.822159,72.550537 
	C140.277222,66.145805 145.666611,65.798386 152.600830,71.622154 
	C161.021591,78.694435 169.400772,85.828209 177.528320,93.231400 
	C180.567932,96.000107 182.774002,96.261665 186.664673,94.503853 
	C199.058731,88.904213 211.735580,83.916801 224.403259,78.948029 
	C226.939957,77.953041 228.093506,76.895737 228.266403,74.091965 
	C228.984070,62.453800 229.948822,50.830887 230.820419,39.202190 
	C231.475769,30.458668 235.155975,26.871082 243.746124,26.850075 
	C261.746002,26.806055 279.746094,26.809345 297.745972,26.850246 
	C306.146179,26.869335 310.191467,30.670593 310.827332,39.235302 
	C311.641357,50.200218 312.488647,61.168961 312.933258,72.151779 
	C313.099976,76.270386 314.404785,78.069244 318.518372,79.417961 
	C328.290558,82.621979 337.759003,86.745354 347.385864,90.403397 
	C350.985718,91.771286 350.916870,93.545799 348.760773,96.335724 
	C340.815552,106.616554 332.925690,116.943192 325.213135,127.398750 
	C323.172607,130.164978 321.342010,130.052750 318.455994,128.902466 
	C246.410416,100.187012 166.322296,140.243286 147.977280,215.859863 
	C136.528076,263.052521 148.730316,305.050995 184.200272,338.028809 
	C222.800049,373.916534 268.381622,381.171478 317.874542,363.296387 
	C321.212708,362.090759 323.188019,362.034393 325.439301,365.088989 
	C332.949707,375.279236 340.660492,385.324860 348.451813,395.303070 
	C350.897339,398.434967 351.047058,400.398682 346.918427,401.919250 
	C337.102875,405.534271 327.405609,409.480103 317.529297,412.914734 
	C314.546844,413.951874 313.204926,415.197357 313.040222,418.405334 
	C312.468048,429.551544 311.621796,440.683472 310.905518,451.822510 
	C310.288818,461.412689 306.345154,465.149048 296.665070,465.159149 
	C278.998444,465.177612 261.331696,465.194641 243.665176,465.149353 
	C235.350845,465.128052 231.486954,461.491638 230.860687,453.175140 
	C230.147675,443.706360 229.522217,434.231018 228.830902,424.298523 
z"/>
<path fill="#FAFAFE" opacity="1.000000" stroke="none" 
	d="
M345.868866,271.871765 
	C332.298492,271.913818 318.727753,272.016754 305.158142,271.933502 
	C303.075409,271.920746 300.997925,271.049927 298.527100,270.084717 
	C297.726227,269.416412 297.316223,269.239319 296.906250,269.062225 
	C296.906250,269.062225 296.982330,269.056244 296.994843,268.690460 
	C296.288666,265.642853 295.026703,262.976379 294.950226,260.276367 
	C294.690918,251.122650 294.795990,241.956604 294.867371,232.796082 
	C294.930756,224.664795 298.664978,221.068741 306.933136,221.017685 
	C318.589050,220.945694 330.245087,220.899353 341.901093,220.842041 
	C342.960236,220.902252 344.019379,220.962463 345.489258,221.516357 
	C345.551971,225.062271 345.203949,228.114517 344.396545,231.182098 
	C331.078766,231.197418 318.220367,231.197418 305.185547,231.197418 
	C305.185547,234.754181 305.185547,237.702225 305.185547,241.276642 
	C306.509949,241.016373 307.681763,240.786087 308.853577,240.555817 
	C320.879333,240.760971 332.905121,240.966125 345.378082,241.669113 
	C345.797913,245.343033 345.770538,248.519150 345.743195,251.695251 
	C333.818634,251.757095 321.894104,251.818939 309.066071,251.838608 
	C301.528717,253.359894 306.794373,258.368774 305.512787,261.962219 
	C306.656403,261.640472 307.800049,261.318726 308.943695,260.996948 
	C318.365753,261.040070 327.788055,261.057190 337.209656,261.149139 
	C339.006714,261.166687 340.800842,261.479614 343.347473,261.751251 
	C344.699921,262.582489 345.756195,263.281982 345.819214,264.061768 
	C346.028412,266.649536 345.880096,269.266174 345.868866,271.871765 
z"/>
<path fill="#FCFDFF" opacity="1.000000" stroke="none" 
	d="
M450.030029,271.836731 
	C446.748962,271.806458 443.467896,271.776184 440.020630,270.921570 
	C439.854431,264.153778 439.854431,258.210327 439.854431,252.094131 
	C438.258545,252.094131 437.119080,252.094131 435.979614,252.094131 
	C428.741364,252.026581 421.503082,251.959030 413.476440,251.804443 
	C410.177826,251.266800 409.033325,252.082687 409.113556,254.860855 
	C409.276794,260.514557 409.164398,266.176208 409.165588,271.834595 
	C405.878174,271.809326 402.590759,271.784058 399.146301,270.921356 
	C398.999390,258.482239 399.011475,246.880600 399.019104,235.278961 
	C399.026581,223.898270 401.965851,221.025436 413.534882,220.995544 
	C421.984619,220.973709 430.434235,220.890381 438.883881,220.834442 
	C439.971588,220.911652 441.059326,220.988861 442.787476,221.353638 
	C448.281525,223.818680 450.117859,227.654297 450.070374,232.858490 
	C449.951813,245.850281 450.030487,258.843872 450.030029,271.836731 
M414.336761,241.112854 
	C422.723724,241.112854 431.110687,241.112854 439.898499,241.112854 
	C439.898499,238.496429 439.791168,236.534729 439.922974,234.589203 
	C440.135376,231.453751 438.626343,230.813110 435.066772,231.330902 
	C427.844788,231.336426 420.622833,231.341949 412.545349,231.175461 
	C405.619232,232.602005 410.874451,237.676865 408.611816,241.100693 
	C410.923828,241.100693 412.190430,241.100693 414.336761,241.112854 
z"/>
<path fill="#FBFEFF" opacity="1.000000" stroke="none" 
	d="
M268.417358,220.867691 
	C269.469055,220.930222 270.520721,220.992752 272.172272,221.323135 
	C277.958588,223.705353 279.692932,227.881531 279.686646,233.118896 
	C279.676300,241.745071 279.555054,250.373917 279.730347,258.996552 
	C279.849945,264.878815 277.843292,269.301788 272.369598,271.865692 
	C257.832458,271.794800 243.295334,271.723877 228.638092,270.962463 
	C228.517990,254.039795 228.517990,237.807693 228.517990,220.867691 
	C242.258026,220.867691 255.337692,220.867691 268.417358,220.867691 
M242.636765,231.145355 
	C240.055771,230.862335 238.740372,231.618164 238.806381,234.615524 
	C238.980347,242.515884 239.006165,250.426300 238.799179,258.325073 
	C238.708710,261.777588 240.244080,262.242493 243.926895,261.691803 
	C252.189117,261.691803 260.451355,261.691803 268.820984,261.691803 
	C268.820984,251.298447 268.820984,241.476059 268.820984,231.039597 
	C260.116425,231.039597 251.841293,231.039597 242.636765,231.145355 
z"/>
<path fill="#FEFDFF" opacity="1.000000" stroke="none" 
	d="
M178.981918,231.409561 
	C173.476181,231.219635 167.970428,231.029709 162.294647,230.035156 
	C162.124603,226.625595 162.124603,224.020660 162.124603,220.834549 
	C178.395966,220.834549 194.009018,220.834549 209.622086,220.834549 
	C210.520401,220.894226 211.418701,220.953903 212.759247,221.533081 
	C213.181885,225.039474 213.162292,228.026382 213.142700,231.013290 
	C208.110016,231.108719 203.077332,231.204147 197.162903,231.255264 
	C194.102905,230.905930 192.877335,231.431717 192.909622,234.052643 
	C193.022247,243.194031 192.953201,252.337677 192.953201,262.132324 
	C194.668701,261.665771 195.840881,261.346954 197.013062,261.028168 
	C202.113846,261.268768 207.214615,261.509338 212.751068,262.317932 
	C213.193390,265.869019 213.200043,268.852081 213.206696,271.835144 
	C196.291321,271.793976 179.375961,271.752808 162.292572,270.925751 
	C162.174103,267.505554 162.223618,264.871277 162.721405,262.196594 
	C166.992905,262.093262 170.824432,262.161896 174.636566,261.922272 
	C177.293228,261.755280 179.923325,261.165527 182.630753,260.316010 
	C182.651657,250.654861 182.607101,241.442307 182.453384,231.899567 
	C181.223450,231.516129 180.102676,231.462845 178.981918,231.409561 
z"/>
<path fill="#F0F8FB" opacity="1.000000" stroke="none" 
	d="
M383.728668,251.694550 
	C376.242493,251.622116 368.756317,251.549683 361.041351,250.707397 
	C360.812561,247.198929 360.812561,244.460312 360.812561,240.901718 
	C367.612732,240.901718 373.685394,240.901718 379.758057,240.901718 
	C380.818604,240.988861 381.879150,241.075989 383.378784,241.665131 
	C383.788116,245.342957 383.758392,248.518753 383.728668,251.694550 
z"/>
<path fill="#FB03FB" opacity="1.000000" stroke="none" 
	d="
M438.567688,220.576797 
	C430.434235,220.890381 421.984619,220.973709 413.534882,220.995544 
	C401.965851,221.025436 399.026581,223.898270 399.019104,235.278961 
	C399.011475,246.880600 398.999390,258.482239 398.918030,270.548279 
	C397.694122,271.012634 396.541412,271.012634 395.067963,271.012634 
	C395.067963,257.001129 394.915466,243.242340 395.146820,229.490005 
	C395.233246,224.352020 399.330719,220.214417 404.421509,220.132690 
	C415.694305,219.951721 426.974396,220.228836 438.567688,220.576797 
z"/>
<path fill="#FC0CFC" opacity="1.000000" stroke="none" 
	d="
M341.635254,220.520401 
	C330.245087,220.899353 318.589050,220.945694 306.933136,221.017685 
	C298.664978,221.068741 294.930756,224.664795 294.867371,232.796082 
	C294.795990,241.956604 294.690918,251.122650 294.950226,260.276367 
	C295.026703,262.976379 296.288666,265.642853 296.978058,268.724731 
	C292.365356,268.729706 291.133240,265.188629 291.040955,261.682983 
	C290.756561,250.877487 290.761688,240.055481 291.016815,229.248444 
	C291.142029,223.945541 295.387299,220.104980 300.960358,220.063217 
	C314.428955,219.962219 327.899628,220.135849 341.635254,220.520401 
z"/>
<path fill="#FF1BFF" opacity="1.000000" stroke="none" 
	d="
M268.060486,220.593781 
	C255.337692,220.867691 242.258026,220.867691 228.517990,220.867691 
	C228.517990,237.807693 228.517990,254.039795 228.367004,270.650452 
	C227.005753,270.173950 224.751633,269.332764 224.740082,268.461823 
	C224.528336,252.496902 224.585266,236.528458 224.585266,220.319855 
	C239.169113,220.319855 253.436340,220.319855 268.060486,220.593781 
z"/>
<path fill="#07ECED" opacity="1.000000" stroke="none" 
	d="
M272.731506,271.934906 
	C277.843292,269.301788 279.849945,264.878815 279.730347,258.996552 
	C279.555054,250.373917 279.676300,241.745071 279.686646,233.118896 
	C279.692932,227.881531 277.958588,223.705353 272.565430,221.362747 
	C279.108002,221.225571 283.332123,224.546112 283.556793,230.998810 
	C283.913391,241.241028 283.884247,251.510483 283.592560,261.756317 
	C283.413452,268.049133 279.755096,271.236847 272.731506,271.934906 
z"/>
<path fill="#06FDFE" opacity="1.000000" stroke="none" 
	d="
M450.466125,271.908569 
	C450.030487,258.843872 449.951813,245.850281 450.070374,232.858490 
	C450.117859,227.654297 448.281525,223.818680 443.193695,221.402298 
	C450.008514,221.369934 453.933655,224.983994 453.995941,231.749451 
	C454.109070,244.037613 453.980042,256.327942 454.076508,268.616394 
	C454.095337,271.012390 453.741302,272.530273 450.466125,271.908569 
z"/>
<path fill="#06FDFE" opacity="1.000000" stroke="none" 
	d="
M196.997742,260.558075 
	C195.840881,261.346954 194.668701,261.665771 192.953201,262.132324 
	C192.953201,252.337677 193.022247,243.194031 192.909622,234.052643 
	C192.877335,231.431717 194.102905,230.905930 196.706024,231.300888 
	C197.081406,240.956543 197.031921,250.522263 196.997742,260.558075 
z"/>
<path fill="#FB03FB" opacity="1.000000" stroke="none" 
	d="
M182.562561,232.229736 
	C182.607101,241.442307 182.651657,250.654861 182.261520,260.351868 
	C180.841675,260.834167 179.856537,260.832031 178.871368,260.829895 
	C178.909760,251.579926 178.948151,242.329971 179.393738,232.580231 
	C180.721481,232.130219 181.642014,232.179977 182.562561,232.229736 
z"/>
<path fill="#FB03FB" opacity="1.000000" stroke="none" 
	d="
M209.354767,220.543213 
	C194.009018,220.834549 178.395966,220.834549 162.124603,220.834549 
	C162.124603,224.020660 162.124603,226.625595 162.037109,229.685898 
	C160.813644,229.233078 158.961334,228.496353 158.694199,227.380249 
	C158.173935,225.206390 158.541733,222.819992 158.541733,220.251892 
	C175.664032,220.251892 192.375748,220.251892 209.354767,220.543213 
z"/>
<path fill="#17FFFF" opacity="1.000000" stroke="none" 
	d="
M409.596222,271.905945 
	C409.164398,266.176208 409.276794,260.514557 409.113556,254.860855 
	C409.033325,252.082687 410.177826,251.266800 413.032288,251.834473 
	C413.316101,257.522125 413.150360,263.094482 413.244019,268.662506 
	C413.285004,271.097839 412.759460,272.475464 409.596222,271.905945 
z"/>
<path fill="#FC0CFC" opacity="1.000000" stroke="none" 
	d="
M435.943878,252.555206 
	C437.119080,252.094131 438.258545,252.094131 439.854431,252.094131 
	C439.854431,258.210327 439.854431,264.153778 439.766846,270.558716 
	C438.539886,270.961121 437.400513,270.902039 435.908142,270.824677 
	C435.908142,264.819733 435.908142,258.917999 435.943878,252.555206 
z"/>
<path fill="#06F3F4" opacity="1.000000" stroke="none" 
	d="
M308.871887,240.057541 
	C307.681763,240.786087 306.509949,241.016373 305.185547,241.276642 
	C305.185547,237.702225 305.185547,234.754181 305.185547,231.197418 
	C318.220367,231.197418 331.078766,231.197418 344.407288,231.208893 
	C344.877441,231.220367 344.910309,231.266922 344.910309,231.266922 
	C333.113586,231.266922 321.316864,231.266922 308.890198,231.266922 
	C308.890198,234.332382 308.890198,236.945831 308.871887,240.057541 
z"/>
<path fill="#DC15E1" opacity="1.000000" stroke="none" 
	d="
M379.479126,240.618073 
	C373.685394,240.901718 367.612732,240.901718 360.812561,240.901718 
	C360.812561,244.460312 360.812561,247.198929 360.743835,250.372894 
	C358.081177,251.173050 356.582031,250.478287 356.901337,247.425003 
	C357.122437,245.310760 356.943848,243.154724 356.943848,240.334412 
	C364.517822,240.334412 371.859039,240.334412 379.479126,240.618073 
z"/>
<path fill="#04E8E9" opacity="1.000000" stroke="none" 
	d="
M346.289612,271.948273 
	C345.880096,269.266174 346.028412,266.649536 345.819214,264.061768 
	C345.756195,263.281982 344.699921,262.582489 343.929047,261.800873 
	C345.541504,261.755524 347.323517,261.755524 350.362427,261.755524 
	C347.695648,265.299988 353.644867,270.222168 346.289612,271.948273 
z"/>
<path fill="#04E8E9" opacity="1.000000" stroke="none" 
	d="
M346.158691,251.733154 
	C345.770538,248.519150 345.797913,245.343033 345.784119,241.735809 
	C348.119965,240.970306 350.403625,241.269211 349.631805,244.352844 
	C348.992950,246.905289 352.545380,251.409180 346.158691,251.733154 
z"/>
<path fill="#04E8E9" opacity="1.000000" stroke="none" 
	d="
M384.156952,251.732910 
	C383.758392,248.518753 383.788116,245.342957 383.773071,241.736267 
	C385.844696,241.176697 388.536255,240.744965 387.815613,244.104187 
	C387.242828,246.774063 390.697449,251.403473 384.156952,251.732910 
z"/>
<path fill="#04E8E9" opacity="1.000000" stroke="none" 
	d="
M345.307434,231.285812 
	C344.910309,231.266922 344.877441,231.220367 344.866669,231.193573 
	C345.203949,228.114517 345.551971,225.062271 345.884430,221.569122 
	C348.430603,220.539368 350.043915,221.016937 349.770111,224.190643 
	C349.588196,226.299347 349.735596,228.436462 349.735596,230.820312 
	C348.243073,230.999664 346.973846,231.152191 345.307434,231.285812 
z"/>
<path fill="#17FFFF" opacity="1.000000" stroke="none" 
	d="
M213.580170,231.079865 
	C213.162292,228.026382 213.181885,225.039474 213.204102,221.608734 
	C214.338699,221.164886 215.470688,221.164886 217.690323,221.164886 
	C215.177048,224.363846 221.079529,229.438477 213.580170,231.079865 
z"/>
<path fill="#17FFFF" opacity="1.000000" stroke="none" 
	d="
M213.633514,271.906189 
	C213.200043,268.852081 213.193390,265.869019 213.164703,262.436340 
	C214.383682,261.986694 215.624695,261.986694 217.976364,261.986694 
	C215.443893,265.455139 220.776627,270.478546 213.633514,271.906189 
z"/>
<path fill="#06F3F4" opacity="1.000000" stroke="none" 
	d="
M308.931549,260.547119 
	C307.800049,261.318726 306.656403,261.640472 305.512787,261.962219 
	C306.794373,258.368774 301.528717,253.359894 308.602478,251.889496 
	C309.001373,254.687454 308.960388,257.392365 308.931549,260.547119 
z"/>
<path fill="#FB03FB" opacity="1.000000" stroke="none" 
	d="
M162.273132,262.236969 
	C162.223618,264.871277 162.174103,267.505554 162.036774,270.574768 
	C160.821671,270.084686 158.600235,268.863861 158.756516,268.285889 
	C159.431381,265.789764 156.008987,261.655823 161.797211,261.270081 
	C162.244919,261.843506 162.259018,262.040222 162.273132,262.236969 
z"/>
<path fill="#EF62FF" opacity="1.000000" stroke="none" 
	d="
M162.721405,262.196594 
	C162.259018,262.040222 162.244919,261.843506 162.269043,261.353088 
	C167.521667,261.000244 172.736099,260.941162 178.410950,260.855988 
	C179.856537,260.832031 180.841675,260.834167 182.196060,260.800446 
	C179.923325,261.165527 177.293228,261.755280 174.636566,261.922272 
	C170.824432,262.161896 166.992905,262.093262 162.721405,262.196594 
z"/>
<path fill="#EF62FF" opacity="1.000000" stroke="none" 
	d="
M182.453384,231.899567 
	C181.642014,232.179977 180.721481,232.130219 179.457169,232.126266 
	C179.113403,232.172073 178.895096,231.816864 178.938507,231.613220 
	C180.102676,231.462845 181.223450,231.516129 182.453384,231.899567 
z"/>
<path fill="#FC0CFC" opacity="1.000000" stroke="none" 
	d="
M296.857086,269.445374 
	C297.316223,269.239319 297.726227,269.416412 298.193298,269.953613 
	C297.769562,270.152008 297.288757,269.990234 296.857086,269.445374 
z"/>
<path fill="#283137" opacity="1.000000" stroke="none" 
	d="
M413.400879,231.347473 
	C420.622833,231.341949 427.844788,231.336426 435.457794,231.880066 
	C435.848816,234.870575 435.848816,237.311920 435.848816,240.283737 
	C427.978973,240.283737 420.688110,240.283737 413.299683,239.833969 
	C413.268372,236.705292 413.334625,234.026382 413.400879,231.347473 
z"/>
<path fill="#DC15E1" opacity="1.000000" stroke="none" 
	d="
M413.397247,240.283737 
	C420.688110,240.283737 427.978973,240.283737 435.848816,240.283737 
	C435.848816,237.311920 435.848816,234.870575 435.904785,232.019073 
	C438.626343,230.813110 440.135376,231.453751 439.922974,234.589203 
	C439.791168,236.534729 439.898499,238.496429 439.898499,241.112854 
	C431.110687,241.112854 422.723724,241.112854 413.848694,240.904755 
	C413.360626,240.696671 413.397247,240.283737 413.397247,240.283737 
z"/>
<path fill="#17FFFF" opacity="1.000000" stroke="none" 
	d="
M413.299683,239.833969 
	C413.397247,240.283737 413.360626,240.696671 413.408813,240.898682 
	C412.190430,241.100693 410.923828,241.100693 408.611816,241.100693 
	C410.874451,237.676865 405.619232,232.602005 412.973114,231.261475 
	C413.334625,234.026382 413.268372,236.705292 413.299683,239.833969 
z"/>
<path fill="#E719F1" opacity="1.000000" stroke="none" 
	d="
M243.566177,231.039597 
	C251.841293,231.039597 260.116425,231.039597 268.820984,231.039597 
	C268.820984,241.476059 268.820984,251.298447 268.820984,261.691803 
	C260.451355,261.691803 252.189117,261.691803 243.495056,261.448059 
	C243.063232,261.204346 243.161377,260.834412 243.619141,260.853699 
	C251.000275,260.872955 257.923615,260.872955 264.804749,260.872955 
	C264.804749,250.645401 264.804749,241.101700 264.804749,231.318924 
	C257.613037,231.318924 250.804901,231.318924 243.898422,231.234772 
	C243.800064,231.150604 243.566177,231.039597 243.566177,231.039597 
z"/>
<path fill="#06F3F4" opacity="1.000000" stroke="none" 
	d="
M243.101471,231.092468 
	C243.566177,231.039597 243.800064,231.150604 243.483322,231.630157 
	C243.164841,241.684616 243.163101,251.259521 243.161377,260.834412 
	C243.161377,260.834412 243.063232,261.204346 243.029968,261.392609 
	C240.244080,262.242493 238.708710,261.777588 238.799179,258.325073 
	C239.006165,250.426300 238.980347,242.515884 238.806381,234.615524 
	C238.740372,231.618164 240.055771,230.862335 243.101471,231.092468 
z"/>
<path fill="#24282E" opacity="1.000000" stroke="none" 
	d="
M243.619141,260.853699 
	C243.163101,251.259521 243.164841,241.684616 243.581680,231.714325 
	C250.804901,231.318924 257.613037,231.318924 264.804749,231.318924 
	C264.804749,241.101700 264.804749,250.645401 264.804749,260.872955 
	C257.923615,260.872955 251.000275,260.872955 243.619141,260.853699 
z"/>
</svg>